<?xml version="1.0" encoding="UTF-8" ?>
<!DOCTYPE svg PUBLIC "-//W3C//DTD SVG 1.1//EN" "http://www.w3.org/Graphics/SVG/1.1/DTD/svg11.dtd">
<svg width="21pt" height="20pt" viewBox="0 0 21 20" version="1.1" xmlns="http://www.w3.org/2000/svg">
<g id="#158297c7">
<path fill="#158297" opacity="0.78" d=" M 8.15 0.00 L 12.96 0.00 C 13.92 0.45 15.85 1.35 16.82 1.79 C 13.93 3.15 10.85 0.80 7.91 1.95 C 4.05 2.98 1.18 6.99 1.76 11.01 C 2.13 14.84 5.47 17.95 9.22 18.41 C 13.49 19.12 18.25 16.38 19.16 12.02 C 19.90 9.56 18.69 7.15 18.00 4.84 C 15.43 8.74 13.04 12.75 10.51 16.67 C 8.48 14.03 6.54 11.30 5.03 8.33 C 7.46 9.10 9.03 11.12 10.57 13.01 C 12.85 9.33 15.12 5.63 17.53 2.03 C 18.86 3.77 20.12 5.57 21.00 7.59 L 21.00 12.55 C 19.80 16.12 16.95 18.90 13.34 20.00 L 7.82 20.00 C 4.05 18.90 1.15 15.94 0.00 12.20 L 0.00 7.98 C 1.11 4.08 4.21 1.02 8.15 0.00 Z" />
</g>
</svg>
