<?xml version="1.0" encoding="UTF-8" ?>
<!DOCTYPE svg PUBLIC "-//W3C//DTD SVG 1.1//EN" "http://www.w3.org/Graphics/SVG/1.1/DTD/svg11.dtd">
<svg width="21pt" height="20pt" viewBox="0 0 21 20" version="1.1" xmlns="http://www.w3.org/2000/svg">
<g id="#c64242c6">
<path fill="#c64242" opacity="0.78" d=" M 8.21 0.00 L 12.87 0.00 C 13.71 0.35 15.37 1.06 16.21 1.41 C 15.94 3.72 13.80 1.99 12.46 1.81 C 6.68 0.16 0.20 5.96 1.95 11.92 C 3.05 17.63 10.53 20.31 15.27 17.20 C 19.52 14.98 20.68 8.84 17.79 5.08 C 15.37 8.87 13.05 12.74 10.63 16.53 C 8.70 14.17 6.06 11.54 5.56 8.60 C 8.13 8.67 8.86 11.55 10.44 13.07 C 13.03 9.60 14.75 5.50 17.63 2.26 C 19.11 3.82 20.37 5.57 21.00 7.65 L 21.00 12.47 C 19.92 16.09 16.94 18.98 13.32 20.00 L 7.90 20.00 C 4.13 19.10 1.28 16.00 0.00 12.42 L 0.00 8.06 C 1.00 4.12 4.24 0.91 8.21 0.00 Z" />
</g>
</svg>
