<svg xmlns="http://www.w3.org/2000/svg" xmlns:xlink="http://www.w3.org/1999/xlink" viewBox="0 0 217.61 64.05"><defs><style>.cls-1{fill:none;}.cls-2{fill:#a7a9ac;}.cls-3,.cls-4{isolation:isolate;}.cls-4{font-size:16.15px;font-family:SegoePrint, Segoe Print;}.cls-4,.cls-7{fill:#fff;}.cls-5{fill:#108239;}.cls-6{clip-path:url(#clip-path);}.cls-8{fill:#12100b;}</style><clipPath id="clip-path"><polyline class="cls-1" points="212.35 60.12 212.35 3.93 5.26 3.93 5.26 60.12"/></clipPath><symbol id="Новый_символ" data-name="Новый символ" viewBox="0 0 217.61 64.05"><rect x="0.81" y="0.81" width="216" height="62.44" rx="7.38"/><path class="cls-2" d="M209.43,64.05H8.19A8.19,8.19,0,0,1,0,55.86H0V8.19A8.19,8.19,0,0,1,8.19,0H209.43a8.19,8.19,0,0,1,8.18,8.19V55.86A8.19,8.19,0,0,1,209.43,64.05ZM8.19,1.62A6.57,6.57,0,0,0,1.62,8.19V55.86a6.58,6.58,0,0,0,6.57,6.58H209.43A6.58,6.58,0,0,0,216,55.86V8.19a6.57,6.57,0,0,0-6.57-6.57H8.19Z"/><g id="图层_1" data-name="图层 1"><g class="cls-3"><text class="cls-4" transform="translate(60.16 25.84) scale(0.96 1)">D</text><text class="cls-4" transform="translate(67.92 25.84) scale(0.96 1)">o</text></g><text class="cls-4" transform="translate(78.78 25.84) scale(0.96 1)">w</text><text class="cls-4" transform="translate(89.79 25.84) scale(0.96 1)">n</text><g class="cls-3"><text class="cls-4" transform="translate(98.28 25.84) scale(0.96 1)">l</text><text class="cls-4" transform="translate(105.95 25.84) scale(0.96 1)">o</text></g><text class="cls-4" transform="translate(110.36 25.84) scale(0.96 1)">a</text><text class="cls-4" transform="translate(117.8 25.84) scale(0.96 1)">d</text><text class="cls-4" transform="translate(129.5 25.84) scale(0.96 1)">f</text><text class="cls-4" transform="translate(134.04 25.84) scale(0.96 1)">r</text><g class="cls-3"><text class="cls-4" transform="translate(138.81 25.84) scale(0.96 1)">o</text><text class="cls-4" transform="translate(146.5 25.84) scale(0.96 1)">m</text></g><polyline class="cls-5" points="212.35 60.12 212.35 3.93 5.26 3.93 5.26 60.12"/><g class="cls-6"><path class="cls-7" d="M32.35,14.56a7.23,7.23,0,0,1,0,1.14c-1.54.7-2.11,1.2-2.11,3.6v1.47L29.17,21V19.3c0-3.54,1.31-4.09,3.07-4.74m3.07-.75a5.85,5.85,0,0,1,.17,1.1c2.77-.42,2.73.79,2.73,3.27v.92l1-.22v-.7c0-3.87-.57-4.9-3.93-4.39M24.51,22V16.9c0-3.16,1.51-4.12,4.41-4.82,4.33-1.08,4.6,1.84,4.6,3.7v4.39l1-.24V15.87c0-3.51-1-6.14-5.88-5-2.58.61-5.23,1.32-5.23,5.92v5.4ZM37.12,35.36H29.05V29.19l8.15-1.25Zm0,8.78L29,42.89V36.3H37.2Zm-9-8.78H21.76V30.27l6.47-1Zm0,7.42-6.47-1V36.22h6.47ZM44.66,19.1,15.49,25.2V47.37l29.17,6.07,5.82-2.19V21.32Z"/></g><g class="cls-3"><text class="cls-4" transform="translate(60.16 25.84) scale(0.96 1)">D</text><text class="cls-4" transform="translate(67.92 25.84) scale(0.96 1)">o</text></g><text class="cls-4" transform="translate(78.78 25.84) scale(0.96 1)">w</text><text class="cls-4" transform="translate(89.79 25.84) scale(0.96 1)">n</text><g class="cls-3"><text class="cls-4" transform="translate(98.28 25.84) scale(0.96 1)">l</text><text class="cls-4" transform="translate(105.95 25.84) scale(0.96 1)">o</text></g><text class="cls-4" transform="translate(110.36 25.84) scale(0.96 1)">a</text><text class="cls-4" transform="translate(117.8 25.84) scale(0.96 1)">d</text><text class="cls-4" transform="translate(129.5 25.84) scale(0.96 1)">f</text><text class="cls-4" transform="translate(134.04 25.84) scale(0.96 1)">r</text><g class="cls-3"><text class="cls-4" transform="translate(138.81 25.84) scale(0.96 1)">o</text><text class="cls-4" transform="translate(146.5 25.84) scale(0.96 1)">m</text></g><polyline class="cls-8" points="212.35 60.12 212.35 3.93 5.26 3.93 5.26 60.12"/><g class="cls-6"><path class="cls-7" d="M32.35,14.56a7.23,7.23,0,0,1,0,1.14c-1.54.7-2.11,1.2-2.11,3.6v1.47L29.17,21V19.3c0-3.54,1.31-4.09,3.07-4.74m3.07-.75a5.85,5.85,0,0,1,.17,1.1c2.77-.42,2.73.79,2.73,3.27v.92l1-.22v-.7c0-3.87-.57-4.9-3.93-4.39M24.51,22V16.9c0-3.16,1.51-4.12,4.41-4.82,4.33-1.08,4.6,1.84,4.6,3.7v4.39l1-.24V15.87c0-3.51-1-6.14-5.88-5-2.58.61-5.23,1.32-5.23,5.92v5.4ZM37.12,35.36H29.05V29.19l8.15-1.25Zm0,8.78L29,42.89V36.3H37.2Zm-9-8.78H21.76V30.27l6.47-1Zm0,7.42-6.47-1V36.22h6.47ZM44.66,19.1,15.49,25.2V47.37l29.17,6.07,5.82-2.19V21.32Z"/><path class="cls-7" d="M70.27,19.93a6.16,6.16,0,0,1-.71,3,5.05,5.05,0,0,1-2.1,2,6.42,6.42,0,0,1-3,.7H61.7V14.51h2.94c3.76,0,5.63,1.8,5.63,5.42m-1.3,0c0-2.85-1.45-4.25-4.35-4.25H63v8.77h1.57a4.43,4.43,0,0,0,3.28-1.16A4.5,4.5,0,0,0,69,20m10.15,1.69a4.35,4.35,0,0,1-1,3,3.49,3.49,0,0,1-2.76,1.17,3.44,3.44,0,0,1-2.69-1.12,4.29,4.29,0,0,1-1-3,4.49,4.49,0,0,1,1-3.11,3.61,3.61,0,0,1,2.85-1.14,3.38,3.38,0,0,1,2.65,1.09,4.57,4.57,0,0,1,1,3.05m-1.24,0a3.62,3.62,0,0,0-.63-2.19,2.22,2.22,0,0,0-1.83-.81,2.29,2.29,0,0,0-1.85.83,3.46,3.46,0,0,0-.69,2.2,3.32,3.32,0,0,0,.69,2.19,2.31,2.31,0,0,0,1.85.79,2.18,2.18,0,0,0,1.83-.79,3.6,3.6,0,0,0,.63-2.19m12.73-4-2.29,8H87.06L85.48,20a4.57,4.57,0,0,1,0-.74h0a2.49,2.49,0,0,1-.14.72l-1.71,5.71H82.42L80.1,17.69h1.29l1.42,6a5.68,5.68,0,0,1,.11.72h0a2.55,2.55,0,0,1,.19-.72l1.76-6H86l1.57,6a4.33,4.33,0,0,1,0,.72h0a2.89,2.89,0,0,1,0-.72l1.75-6Zm7.73,8H97.12V21.1c0-1.67-.59-2.53-1.76-2.53a1.88,1.88,0,0,0-1.51.73,2.59,2.59,0,0,0-.61,1.8v4.54H92V17.69h1.22V19h0a2.69,2.69,0,0,1,2.5-1.51,2.27,2.27,0,0,1,1.91.85,4,4,0,0,1,.65,2.42Zm3.51,0h-1.22V13.88h1.28Zm9.39-4a4.36,4.36,0,0,1-.92,3,3.56,3.56,0,0,1-2.78,1.17,3.52,3.52,0,0,1-2.69-1.12,4.29,4.29,0,0,1-1-3,4.49,4.49,0,0,1,1-3.11,3.61,3.61,0,0,1,2.85-1.14,3.32,3.32,0,0,1,2.65,1.09,4.54,4.54,0,0,1,1,3.05m-1.24,0a3.69,3.69,0,0,0-.65-2.19,2.18,2.18,0,0,0-1.81-.81,2.31,2.31,0,0,0-1.87.83,3.58,3.58,0,0,0-.67,2.2,3.35,3.35,0,0,0,.67,2.19,2.33,2.33,0,0,0,1.87.79,2.2,2.2,0,0,0,1.81-.79,3.55,3.55,0,0,0,.65-2.19m8.4,3.95h-1.22V24.41h0a2.69,2.69,0,0,1-4.09.81,2.2,2.2,0,0,1-.78-1.69c0-1.49.84-2.35,2.52-2.59l2.27-.35c0-1.34-.53-2-1.56-2a3.6,3.6,0,0,0-2.47,1V18.24a3.58,3.58,0,0,1,1.13-.5,5.12,5.12,0,0,1,1.45-.24c1.79,0,2.67,1,2.67,3Zm-1.22-4-1.82.26a2.66,2.66,0,0,0-1.33.49,1.35,1.35,0,0,0-.38,1,1.3,1.3,0,0,0,.4,1,1.55,1.55,0,0,0,1,.35,2,2,0,0,0,1.5-.66,2.45,2.45,0,0,0,.58-1.67Zm10,4H126V24.3h0a2.83,2.83,0,0,1-2.62,1.54,2.74,2.74,0,0,1-2.29-1.08,4.46,4.46,0,0,1-.86-2.9,5,5,0,0,1,.94-3.18,3.11,3.11,0,0,1,2.54-1.18A2.4,2.4,0,0,1,126,18.79h0V13.88h1.22ZM126,22V20.88a2.22,2.22,0,0,0-.63-1.65,2,2,0,0,0-1.53-.66,2.06,2.06,0,0,0-1.74.86,3.87,3.87,0,0,0-.63,2.37,3.39,3.39,0,0,0,.6,2.19,1.94,1.94,0,0,0,1.64.79,2,2,0,0,0,1.64-.74,2.87,2.87,0,0,0,.65-2m11-7.17a1.4,1.4,0,0,0-.8-.22c-.86,0-1.28.57-1.28,1.69v1.23h1.79v1.07h-1.79v7h-1.22V18.77h-1.3V17.69h1.3V16.4a2.76,2.76,0,0,1,.68-1.95,2.24,2.24,0,0,1,1.74-.75,2.38,2.38,0,0,1,.88.13Zm5,4a1.44,1.44,0,0,0-.92-.26,1.54,1.54,0,0,0-1.35.88,3.77,3.77,0,0,0-.5,2.06v4.06H138V17.69h1.22V19.3h0A2.84,2.84,0,0,1,140,18a1.73,1.73,0,0,1,1.19-.48,1.84,1.84,0,0,1,.74,0Zm8.05,2.66a4.37,4.37,0,0,1-1,3,3.54,3.54,0,0,1-2.75,1.16,3.47,3.47,0,0,1-2.71-1.12,4.24,4.24,0,0,1-1-3,4.5,4.5,0,0,1,1-3.12,3.58,3.58,0,0,1,2.84-1.14,3.28,3.28,0,0,1,2.64,1.1,4.5,4.5,0,0,1,1,3m-1.24,0a3.61,3.61,0,0,0-.67-2.26,2.22,2.22,0,0,0-1.81-.82,2.35,2.35,0,0,0-1.87.84,3.62,3.62,0,0,0-.67,2.19,3.32,3.32,0,0,0,.69,2.2,2.36,2.36,0,0,0,1.85.79,2.2,2.2,0,0,0,1.81-.55,3.57,3.57,0,0,0,.63-2.2m14.08,3.89h-1.22V21.07a3.61,3.61,0,0,0-.38-1.91,1.49,1.49,0,0,0-1.33-.59,1.64,1.64,0,0,0-1.32.75,3.1,3.1,0,0,0-.55,1.78v4.54h-1.21V20.92c0-1.56-.57-2.35-1.73-2.35a1.51,1.51,0,0,0-1.32.73,2.85,2.85,0,0,0-.53,1.8v4.54h-1.21V17.69h1.21V19h0a2.57,2.57,0,0,1,2.38-1.45,2.2,2.2,0,0,1,1.32.44,2.16,2.16,0,0,1,.82,1.2,2.73,2.73,0,0,1,2.54-1.64c1.66,0,2.5,1.07,2.5,3.24Z"/><path class="cls-7" d="M81.22,32.79,76.7,49.38H74.6L71.34,37.25a8.73,8.73,0,0,1-.25-1.69h0a11.91,11.91,0,0,1-.29,1.67L67.5,49.38H65.4L60.75,32.79h2.1L66,45.63a11.35,11.35,0,0,1,.27,1.65h0a7.12,7.12,0,0,1,.34-1.65l3.5-12.73H72l3.38,12.73a11.57,11.57,0,0,1,.28,1.54h0a9.17,9.17,0,0,1,.29-1.58l3.26-12.77Zm3.59.84a1.21,1.21,0,0,1-.36.9,1.19,1.19,0,0,1-.84.35,1.13,1.13,0,0,1-.84-.35,1.32,1.32,0,0,1,0-1.76,1.09,1.09,0,0,1,.84-.37,1.16,1.16,0,0,1,.86.37,1.2,1.2,0,0,1,.34.86M84.5,49.38H82.69V37.53H84.5Zm12.16,0H94.85V42.62c0-2.5-.88-3.77-2.64-3.77A2.89,2.89,0,0,0,90,39.93a4.08,4.08,0,0,0-.91,2.69v6.76H87.21V37.53H89v2h0a4,4,0,0,1,3.72-2.2,3.34,3.34,0,0,1,2.84,1.28,5.83,5.83,0,0,1,1,3.6Zm12.61,0h-1.83v-2h0A4.43,4.43,0,0,1,101.21,49a4.6,4.6,0,0,1-1.08-.94,6.8,6.8,0,0,1-1.28-4.39,7.32,7.32,0,0,1,1.38-4.61,4.52,4.52,0,0,1,3.78-1.8,3.64,3.64,0,0,1,3.41,1.91h0V31.85h1.83ZM107.44,44V42.27a3.38,3.38,0,0,0-.93-2.43,3,3,0,0,0-2.26-1,3.14,3.14,0,0,0-2.61,1.27,5.65,5.65,0,0,0-1,3.51,5.17,5.17,0,0,0,.91,3.23A2.92,2.92,0,0,0,104,48.05a3,3,0,0,0,2.44-1.15,4.24,4.24,0,0,0,1-2.89m15.25-.57A6.48,6.48,0,0,1,121.14,48,5.7,5.7,0,0,1,113,48a6.29,6.29,0,0,1-1.49-4.39,6.57,6.57,0,0,1,1.53-4.52,5.38,5.38,0,0,1,4.2-1.71,5,5,0,0,1,4,1.64,6.74,6.74,0,0,1,1.47,4.46m-1.85,0a5.4,5.4,0,0,0-.94-3.43,3.27,3.27,0,0,0-2.71-1.2A3.39,3.39,0,0,0,114.41,40a5.14,5.14,0,0,0-1,3.4,4.9,4.9,0,0,0,1,3.31A3.41,3.41,0,0,0,117.15,48a3.23,3.23,0,0,0,2.71-1.19,5.31,5.31,0,0,0,1-3.33m18.39-5.95-3.38,11.85h-1.9l-2.33-8.49a5.53,5.53,0,0,1-.17-1.08h0a4.27,4.27,0,0,1-.23,1.06l-2.52,8.51h-1.83l-3.42-11.85h1.91l2.33,8.91a6.38,6.38,0,0,1,.17,1.05h0a3.91,3.91,0,0,1,.21-1.07l2.61-8.78h1.66l2.35,8.93a6.32,6.32,0,0,1,.15,1h0a4.22,4.22,0,0,1,.19-1l2.31-8.93ZM147,46.27a3.1,3.1,0,0,1-1.13,2.5,4.57,4.57,0,0,1-3,1A5.37,5.37,0,0,1,140,49V47a4.36,4.36,0,0,0,2.94,1.14c1.45,0,2.1-.55,2.1-1.64a1.42,1.42,0,0,0-.42-1.1,7.92,7.92,0,0,0-1.91-1.14,5.66,5.66,0,0,1-2.11-1.45,3.38,3.38,0,0,1,.51-4.5,4.25,4.25,0,0,1,2.84-1,5.07,5.07,0,0,1,2.41.55v1.91a4.09,4.09,0,0,0-2.41-.86,2.17,2.17,0,0,0-1.45.48,1.46,1.46,0,0,0-.55,1.19,1.68,1.68,0,0,0,.42,1.21,5.65,5.65,0,0,0,1.74,1,6.22,6.22,0,0,1,2.27,1.52,3,3,0,0,1,.65,2"/><path class="cls-7" d="M163.1,45.19a4,4,0,0,1-1.43,3.27,5.68,5.68,0,0,1-3.85,1.21,7.9,7.9,0,0,1-2.1-.31,4.75,4.75,0,0,1-1.57-.63V46.42a5.28,5.28,0,0,0,1.76,1,5.64,5.64,0,0,0,2.1.44c2.1,0,3.05-.83,3.05-2.5a2.63,2.63,0,0,0-.65-1.78,12.12,12.12,0,0,0-2.67-2A10.18,10.18,0,0,1,155,39.49a4.18,4.18,0,0,1-.72-2.64,4.06,4.06,0,0,1,1.41-3.2,5.33,5.33,0,0,1,3.64-1.19,6.23,6.23,0,0,1,3.11.6v2.19a4.89,4.89,0,0,0-3.22-1,3.34,3.34,0,0,0-2.1.68,2.23,2.23,0,0,0-.84,1.82,3,3,0,0,0,.25,1.32,3.48,3.48,0,0,0,.84,1,16.35,16.35,0,0,0,2.1,1.31,10.63,10.63,0,0,1,2.94,2.31,4,4,0,0,1,.84,2.5m7.51,4.06a3.42,3.42,0,0,1-1.71.4c-2,0-3-1.17-3-3.49V39.05h-1.93v-1.6h1.93V34.66l1.83-.62v3.52h2.86v1.49h-3v6.69a2.85,2.85,0,0,0,.38,1.69,1.58,1.58,0,0,0,1.3.51,1.93,1.93,0,0,0,1.18-.4Zm12.6-5.84a6.57,6.57,0,0,1-1.53,4.52,5.81,5.81,0,0,1-8.22.07,6.34,6.34,0,0,1-1.51-4.39,6.59,6.59,0,0,1,1.41-4.54,5.38,5.38,0,0,1,4.2-1.71,5,5,0,0,1,4,1.64,6.79,6.79,0,0,1,1.47,4.46m-1.87,0a5.4,5.4,0,0,0-.94-3.43,3.32,3.32,0,0,0-2.76-1.16,3.47,3.47,0,0,0-2.77,1.23,5.33,5.33,0,0,0-1,3.36,4.9,4.9,0,0,0,1,3.31,3.39,3.39,0,0,0,2.71,1.3,3.28,3.28,0,0,0,2.71-1.19,5.27,5.27,0,0,0,1-3.42m9.69-4a2.3,2.3,0,0,0-1.39-.37,2.23,2.23,0,0,0-2,1.18,5.69,5.69,0,0,0-.76,3.23v6H185V37.62h1.83v2.44h0A4,4,0,0,1,188,38.13a2.59,2.59,0,0,1,1.8-.73,3,3,0,0,1,1.1.18Zm10.92,4.39h-8a4.49,4.49,0,0,0,1,3.07,3.41,3.41,0,0,0,2.67,1,5.41,5.41,0,0,0,3.5-1.29V48.4a6.41,6.41,0,0,1-3.92,1.14,4.65,4.65,0,0,1-3.79-1.65A6.79,6.79,0,0,1,192,43.44a7.67,7.67,0,0,1,.67-3.21A5.45,5.45,0,0,1,194.53,38a4.72,4.72,0,0,1,2.67-.79,4.25,4.25,0,0,1,3.44,1.49,6.44,6.44,0,0,1,1.22,4.19ZM200,42.19a4.1,4.1,0,0,0-.75-2.55,2.53,2.53,0,0,0-2.1-.92,2.88,2.88,0,0,0-2.1,1,4.67,4.67,0,0,0-1.14,2.51Z"/></g></g></symbol></defs><g id="Слой_2" data-name="Слой 2"><g id="Слой_1-2" data-name="Слой 1"><use width="217.61" height="64.05" xlink:href="#Новый_символ"/></g></g></svg>